<?xml version="1.0" encoding="iso-8859-1"?>
<!-- Uploaded to: SVG Repo, www.svgrepo.com, Generator: SVG Repo Mixer Tools -->
<svg height="800px" width="800px" version="1.1" id="Layer_1" xmlns="http://www.w3.org/2000/svg" xmlns:xlink="http://www.w3.org/1999/xlink" 
	 viewBox="0 0 512.003 512.003" xml:space="preserve">
<path style="fill:#1d2123;" d="M497.569,255.999c0,101.019-62.002,187.557-150.034,223.616
	c-28.226,11.566-59.132,17.949-91.531,17.949s-63.305-6.383-91.531-17.949C76.44,443.556,14.438,357.018,14.438,255.999
	S76.44,68.442,164.472,32.383c28.227-11.566,59.132-17.949,91.531-17.949s63.305,6.383,91.531,17.949
	C435.566,68.442,497.569,154.982,497.569,255.999z"/>
<circle style="fill:#1a1e1f;" cx="256.007" cy="256.004" r="87.842"/>
<g>
	<path style="fill:#8db654;" d="M171.676,280.588L33.16,349.398c11.781,28.138,29.121,54.505,52.031,77.415
		c22.91,22.908,49.277,40.25,77.415,52.031l68.81-138.516C202.679,331.962,180.04,309.325,171.676,280.588z"/>
	<path style="fill:#8db654;" d="M340.333,231.415l138.514-68.813c-11.781-28.138-29.121-54.505-52.031-77.415
		c-22.91-22.908-49.277-40.25-77.415-52.031l-68.813,138.514C309.327,180.035,331.967,202.675,340.333,231.415z"/>
</g>
<circle style="fill:#767B95;" cx="256.007" cy="256.004" r="29.281"/>
<path d="M256.003,299.716c-24.105,0-43.715-19.61-43.715-43.715s19.61-43.715,43.715-43.715s43.715,19.61,43.715,43.715
	S280.109,299.716,256.003,299.716z M256.003,241.152c-8.187,0-14.847,6.66-14.847,14.847c0,8.187,6.66,14.847,14.847,14.847
	c8.187,0,14.847-6.66,14.847-14.847C270.85,247.812,264.19,241.152,256.003,241.152z"/>
<path d="M388.205,138.233c-0.938,0-1.891-0.088-2.829-0.274c-0.924-0.188-1.819-0.462-2.699-0.823
	c-0.866-0.361-1.703-0.808-2.483-1.328c-0.794-0.534-1.531-1.124-2.208-1.804c-0.664-0.664-1.256-1.4-1.79-2.194
	c-0.518-0.779-0.967-1.617-1.328-2.484c-0.361-0.879-0.634-1.774-0.821-2.698c-0.189-0.938-0.274-1.878-0.274-2.829
	c0-0.938,0.087-1.878,0.274-2.815c0.188-0.925,0.46-1.835,0.821-2.699c0.361-0.867,0.81-1.718,1.328-2.497
	c0.534-0.794,1.126-1.53,1.79-2.194c0.678-0.664,1.415-1.27,2.208-1.79c0.779-0.52,1.617-0.967,2.483-1.328
	c0.88-0.361,1.775-0.635,2.699-0.823c4.706-0.951,9.685,0.592,13.034,3.941c0.664,0.664,1.27,1.4,1.788,2.194
	c0.52,0.779,0.967,1.631,1.328,2.497c0.361,0.866,0.635,1.774,0.823,2.699c0.188,0.937,0.289,1.876,0.289,2.815
	c0,0.951-0.101,1.891-0.289,2.829c-0.188,0.924-0.462,1.819-0.823,2.698c-0.361,0.867-0.808,1.705-1.328,2.484
	c-0.518,0.794-1.124,1.53-1.788,2.194C395.725,136.701,392.001,138.233,388.205,138.233z"/>
<path d="M487.207,145.946c-0.065-0.137-0.128-0.276-0.195-0.413c-0.808-1.687-1.633-3.369-2.48-5.04
	c-0.427-0.847-0.872-1.686-1.309-2.527c-0.346-0.664-0.69-1.329-1.041-1.992c-0.625-1.176-1.262-2.346-1.904-3.513
	c-0.108-0.196-0.216-0.391-0.325-0.586c-6.822-12.305-14.645-24.01-23.437-35.052c-0.198-0.25-0.398-0.495-0.598-0.743
	c-1.534-1.913-3.098-3.806-4.69-5.678c-0.432-0.51-0.856-1.023-1.292-1.53c-1.517-1.755-3.063-3.49-4.63-5.209
	c-1.068-1.173-2.152-2.33-3.24-3.483c-0.505-0.534-1.016-1.065-1.526-1.595c-3.975-4.141-8.08-8.141-12.314-11.995
	c-0.235-0.214-0.472-0.426-0.709-0.641c-2.875-2.598-5.8-5.137-8.786-7.6c-0.082-0.068-0.163-0.139-0.245-0.206
	c-1.231-1.013-2.477-2.006-3.727-2.997c-0.932-0.739-1.871-1.467-2.812-2.193c-1.031-0.792-2.057-1.594-3.099-2.37
	c-1.934-1.443-3.891-2.852-5.863-4.238c-0.707-0.495-1.419-0.982-2.13-1.471c-1.848-1.27-3.71-2.516-5.587-3.736
	c-0.393-0.254-0.779-0.515-1.172-0.766c-2.385-1.53-4.796-3.014-7.232-4.462c-0.32-0.191-0.642-0.377-0.963-0.566
	c-2.422-1.426-4.864-2.819-7.334-4.164c-0.084-0.046-0.167-0.094-0.251-0.14c-2.601-1.413-5.232-2.78-7.885-4.105
	c-0.293-0.146-0.587-0.289-0.88-0.433c-2.462-1.217-4.944-2.399-7.449-3.539c-0.218-0.098-0.434-0.202-0.652-0.3
	c-2.142-0.967-4.296-1.913-6.468-2.823c-0.167-0.071-0.338-0.12-0.507-0.183c-0.491-0.205-0.971-0.429-1.464-0.631
	C322.193,6.403,289.558,0,256.003,0s-66.189,6.403-97.002,19.027c-46.459,19.03-86.042,51.071-114.476,92.658
	c-29.127,42.607-44.522,92.51-44.522,144.314c0,38.471,8.497,75.89,24.796,110.054c0.065,0.137,0.128,0.276,0.195,0.413
	c0.808,1.687,1.632,3.369,2.48,5.04c0.427,0.847,0.872,1.686,1.309,2.527c0.346,0.664,0.69,1.329,1.041,1.992
	c0.625,1.176,1.262,2.346,1.904,3.513c0.108,0.196,0.217,0.391,0.325,0.586c6.822,12.305,14.645,24.01,23.437,35.052
	c0.198,0.25,0.398,0.495,0.598,0.743c1.534,1.913,3.098,3.806,4.69,5.678c0.432,0.51,0.856,1.023,1.292,1.53
	c1.517,1.755,3.063,3.49,4.63,5.209c1.068,1.173,2.152,2.33,3.24,3.483c0.505,0.534,1.016,1.065,1.526,1.595
	c3.975,4.141,8.08,8.141,12.314,11.995c0.235,0.214,0.472,0.426,0.709,0.641c2.875,2.598,5.8,5.137,8.786,7.6
	c0.082,0.068,0.163,0.139,0.245,0.206c1.231,1.013,2.477,2.006,3.727,2.996c0.932,0.739,1.871,1.466,2.812,2.193
	c1.031,0.792,2.057,1.594,3.099,2.37c1.934,1.443,3.891,2.852,5.863,4.238c0.707,0.495,1.419,0.982,2.13,1.471
	c1.848,1.27,3.71,2.516,5.587,3.736c0.393,0.254,0.779,0.515,1.172,0.766c2.385,1.53,4.796,3.014,7.231,4.462
	c0.32,0.191,0.642,0.377,0.963,0.566c2.422,1.426,4.864,2.819,7.334,4.164c0.084,0.046,0.167,0.094,0.251,0.14
	c2.601,1.413,5.232,2.78,7.885,4.105c0.293,0.146,0.587,0.289,0.88,0.433c2.462,1.217,4.944,2.399,7.449,3.539
	c0.218,0.098,0.434,0.202,0.652,0.3c2.142,0.967,4.296,1.913,6.468,2.823c0.163,0.068,0.331,0.117,0.495,0.179
	c0.495,0.206,0.979,0.433,1.475,0.635c30.814,12.626,63.45,19.029,97.003,19.029S322.188,505.6,353,492.976
	c46.459-19.03,86.042-51.071,114.476-92.658c29.128-42.607,44.523-92.51,44.523-144.314
	C512.004,217.529,503.506,180.11,487.207,145.946z M155.889,459.919c-0.375-0.183-0.759-0.355-1.133-0.541
	c-0.407-0.202-0.813-0.408-1.217-0.612c-2.104-1.061-4.187-2.151-6.249-3.271c-0.668-0.364-1.331-0.739-1.996-1.111
	c-1.335-0.742-2.654-1.504-3.971-2.27c-1.731-1.013-3.451-2.045-5.154-3.103c-0.322-0.199-0.644-0.4-0.964-0.6
	c-14.324-9.008-27.638-19.636-39.806-31.804c-17.838-17.838-32.377-38.136-43.336-60.479l111.89-55.584
	c2.89,5.948,6.339,11.576,10.28,16.816l-29.576,29.576c-5.637,5.637-5.637,14.776,0,20.414c2.819,2.818,6.513,4.228,10.206,4.228
	c3.694,0,7.387-1.41,10.206-4.228l29.576-29.576c5.24,3.941,10.867,7.39,16.816,10.28L155.889,459.919z M235.192,326.386
	c-2.874-0.849-5.68-1.868-8.404-3.057c-0.051-0.023-0.101-0.046-0.152-0.069c-1.347-0.592-2.673-1.224-3.978-1.894
	c-0.046-0.025-0.094-0.049-0.141-0.072c-13.581-7.022-24.785-18.225-31.807-31.807c-0.025-0.046-0.048-0.094-0.072-0.141
	c-0.671-1.305-1.302-2.631-1.894-3.978c-0.023-0.052-0.046-0.101-0.069-0.152c-1.189-2.722-2.208-5.53-3.057-8.404
	c-1.956-6.602-3.023-13.582-3.023-20.811c0-40.478,32.93-73.408,73.408-73.408c7.233,0,14.218,1.068,20.823,3.027
	c2.865,0.846,5.664,1.862,8.378,3.047c0.064,0.029,0.126,0.059,0.191,0.087c1.332,0.586,2.646,1.211,3.938,1.875
	c0.056,0.029,0.111,0.058,0.166,0.087c13.58,7.022,24.781,18.226,31.8,31.807c0.023,0.043,0.045,0.088,0.068,0.131
	c0.674,1.312,1.309,2.646,1.904,4c0.019,0.043,0.04,0.087,0.059,0.13c1.194,2.731,2.216,5.546,3.066,8.43
	c1.952,6.596,3.017,13.57,3.017,20.789c0,40.478-32.93,73.408-73.408,73.408C248.776,329.408,241.794,328.342,235.192,326.386z
	 M337.775,194.641l29.576-29.576c5.637-5.637,5.637-14.776,0-20.414c-5.638-5.635-14.775-5.635-20.414,0l-29.576,29.576
	c-5.24-3.941-10.867-7.392-16.817-10.281L356.118,52.08c0.375,0.183,0.759,0.355,1.133,0.541c0.407,0.202,0.813,0.408,1.217,0.612
	c2.103,1.061,4.186,2.149,6.247,3.269c0.671,0.365,1.335,0.742,2.002,1.113c1.332,0.742,2.65,1.501,3.965,2.268
	c1.736,1.016,3.463,2.051,5.17,3.113c0.315,0.195,0.628,0.39,0.941,0.586c14.329,9.01,27.644,19.641,39.815,31.811
	c17.838,17.838,32.377,38.136,43.336,60.479l-111.889,55.586C345.167,205.51,341.717,199.882,337.775,194.641z M169.944,45.739
	c27.324-11.194,56.279-16.871,86.059-16.871c25.218,0,49.84,4.086,73.385,12.132l-56.689,114.109
	c-5.437-0.896-11.009-1.384-16.696-1.384c-56.396,0-102.276,45.88-102.276,102.276c0,5.687,0.488,11.262,1.386,16.699
	L40.959,329.407c-7.869-23.188-12.087-47.911-12.087-73.408C28.872,163.376,84.245,80.843,169.944,45.739z M342.062,466.26
	c-27.324,11.195-56.277,16.871-86.059,16.871c-25.219,0-49.84-4.086-73.385-12.132l56.686-114.109
	c5.437,0.898,11.012,1.386,16.699,1.386c56.396,0,102.276-45.88,102.276-102.276c0-5.687-0.488-11.26-1.384-16.696l114.154-56.71
	c7.868,23.188,12.087,47.91,12.087,73.406C483.135,348.624,427.762,431.157,342.062,466.26z"/>
<path d="M123.802,402.636c-0.938,0-1.892-0.101-2.815-0.289c-0.925-0.188-1.835-0.462-2.699-0.823
	c-0.88-0.361-1.718-0.808-2.497-1.328c-0.794-0.518-1.53-1.124-2.194-1.788c-0.664-0.664-1.27-1.402-1.79-2.195
	c-0.518-0.779-0.967-1.617-1.328-2.496c-0.361-0.868-0.634-1.775-0.823-2.699c-0.188-0.925-0.287-1.878-0.287-2.815
	c0-0.938,0.1-1.892,0.287-2.829c0.189-0.909,0.462-1.819,0.823-2.699c0.361-0.866,0.81-1.703,1.328-2.483
	c0.52-0.795,1.126-1.531,1.79-2.195c0.664-0.678,1.4-1.27,2.194-1.804c0.779-0.518,1.617-0.967,2.497-1.328
	c0.866-0.361,1.774-0.634,2.699-0.823c4.677-0.937,9.671,0.592,13.02,3.955c0.664,0.664,1.27,1.4,1.804,2.195
	c0.52,0.779,0.967,1.617,1.328,2.483c0.361,0.88,0.635,1.79,0.823,2.699c0.188,0.937,0.274,1.891,0.274,2.829
	c0,0.937-0.088,1.891-0.274,2.815c-0.188,0.924-0.462,1.833-0.823,2.699c-0.361,0.879-0.808,1.716-1.328,2.496
	c-0.534,0.794-1.14,1.531-1.804,2.195c-0.664,0.664-1.4,1.27-2.194,1.788c-0.779,0.52-1.617,0.967-2.483,1.328
	c-0.88,0.361-1.79,0.635-2.699,0.823C125.692,402.535,124.739,402.636,123.802,402.636z"/>
</svg>